<?xml version="1.0" standalone="no"?>
<!DOCTYPE svg PUBLIC "-//W3C//DTD SVG 20010904//EN"
 "http://www.w3.org/TR/2001/REC-SVG-20010904/DTD/svg10.dtd">
<svg version="1.0" xmlns="http://www.w3.org/2000/svg"
 width="512.000000pt" height="512.000000pt" viewBox="0 0 512.000000 512.000000"
 preserveAspectRatio="xMidYMid meet">
<metadata>
Created by potrace 1.14, written by Peter Selinger 2001-2017
</metadata>
<g transform="translate(0.000000,512.000000) scale(0.100000,-0.100000)"
fill="#000000" stroke="none">
<path d="M480 5067 c-25 -7 -89 -64 -227 -201 -167 -167 -193 -197 -203 -236
-15 -55 -9 -123 14 -171 9 -20 138 -156 294 -310 285 -284 306 -300 421 -335
61 -19 187 -18 245 2 l48 17 236 -236 236 -236 -80 -88 c-538 -589 -968 -1283
-1209 -1948 -115 -319 -207 -723 -209 -925 -1 -74 3 -93 28 -147 35 -76 104
-144 184 -181 48 -23 70 -27 142 -26 195 2 557 82 890 196 655 226 1384 675
1983 1222 l88 80 235 -236 236 -235 -16 -47 c-36 -106 -13 -272 53 -373 16
-27 153 -170 303 -320 288 -286 297 -293 387 -293 85 0 107 15 299 204 101
100 190 194 198 209 22 42 28 120 14 174 -12 43 -39 74 -284 321 -149 150
-292 287 -319 304 -101 65 -267 88 -373 52 l-47 -16 -235 236 -236 235 80 88
c655 718 1138 1572 1333 2358 46 182 83 409 85 510 1 80 -2 97 -28 152 -35 76
-104 144 -184 181 -48 23 -70 27 -142 26 -195 -2 -557 -82 -890 -196 -656
-226 -1383 -674 -1983 -1222 l-88 -80 -235 236 -236 235 16 47 c36 106 13 272
-53 373 -16 27 -153 170 -303 320 -227 225 -280 273 -313 282 -49 13 -108 13
-155 -2z m133 -81 c18 -7 149 -130 295 -277 220 -220 268 -273 294 -326 32
-66 46 -160 34 -228 l-7 -37 -147 144 c-153 151 -190 178 -242 178 -77 0 -160
-85 -160 -163 0 -49 33 -92 188 -246 128 -128 134 -135 111 -144 -13 -5 -58
-7 -99 -5 -138 8 -158 22 -467 331 -189 188 -276 282 -284 305 -24 72 -11 93
174 281 203 204 230 221 310 187z m255 -640 c15 -8 128 -116 252 -240 l225
-226 -53 -52 -52 -53 -226 225 c-205 205 -254 260 -254 289 0 12 59 71 71 71
6 0 22 -6 37 -14z m1742 -1741 l1205 -1205 -48 -47 -47 -48 -1207 1207 -1208
1208 45 45 c24 25 47 45 50 45 3 0 547 -542 1210 -1205z m560 928 c187 -46
282 -129 344 -301 91 -255 34 -616 -161 -1007 -31 -60 -62 -120 -71 -132 l-15
-24 -23 22 c-13 13 -24 26 -24 31 0 4 27 63 59 130 127 264 190 480 198 683 9
203 -27 318 -129 415 -105 101 -223 136 -421 127 -200 -9 -426 -76 -679 -202
l-127 -62 -26 27 -27 28 44 26 c148 86 422 195 579 230 171 38 349 42 479 9z
m-1331 -467 l22 -23 -89 -71 c-246 -197 -456 -486 -512 -706 -66 -259 32 -509
297 -756 355 -331 669 -355 1057 -79 111 79 296 255 372 355 l57 75 28 -27
c33 -32 39 -19 -81 -164 -215 -261 -457 -431 -690 -485 -105 -24 -262 -22
-364 5 -171 44 -336 148 -486 307 -343 362 -377 767 -99 1163 29 41 102 125
163 186 109 109 270 244 291 244 7 0 21 -11 34 -24z m2273 -1953 c124 -126
231 -238 237 -250 15 -29 -6 -72 -42 -92 -20 -11 -29 -10 -53 2 -16 9 -130
117 -254 241 l-225 226 50 50 c27 27 52 50 55 50 3 0 107 -102 232 -227z
m-3139 152 c162 -42 268 -157 299 -325 22 -116 -23 -252 -112 -340 -88 -89
-224 -134 -340 -112 -178 33 -299 154 -332 332 -22 115 23 252 110 339 102
102 240 141 375 106z m3409 -63 c54 -26 104 -71 328 -296 212 -212 268 -274
279 -307 24 -74 11 -96 -180 -287 -141 -141 -179 -174 -212 -183 -78 -21 -89
-13 -384 283 -321 322 -328 333 -328 485 0 50 3 94 6 97 3 3 64 -53 135 -125
146 -147 201 -189 251 -189 78 0 163 84 163 160 0 52 -27 89 -177 242 -162
164 -161 158 -26 154 68 -2 92 -8 145 -34z"/>
<path d="M782 1186 c-224 -73 -295 -363 -130 -528 69 -70 127 -93 228 -93 102
0 157 22 222 87 70 69 93 127 93 228 0 70 -4 94 -24 135 -32 64 -100 131 -159
157 -59 27 -171 33 -230 14z"/>
</g>
</svg>
